#format: frame checksums
#version: 1
#hash: MD5
#tb 0: 1/25
#stream#, dts,        pts, duration,     size, hash
0,         -1,          0,        1,    17825, 2644f832fc85e1163d4568690241e79e
0,          0,          1,        1,     4301, 990de57f1bf5a5813e5e7843a57ea70d
0,          1,          2,        1,     4418, 55ae336bc8c2df7f6dcfa1cfce5f48eb
0,          2,          3,        1,     4081, 74dc253ba28af6ebb825ba51acedacf7
0,          3,          4,        1,     4171, 53841f33499f6678fcabe942aefe7f5b
0,          4,          5,        1,     4424, 736ba3f20a3aacbab4cfd9167466248b
0,          5,          6,        1,     4483, dcdd388147fb40dd8898a40545234865
0,          6,          7,        1,     4306, 165d22eb6e254d5ef443bcff58a872d6
0,          7,          8,        1,     4335, 0c62a4f84d65b9ec41df15228c0acf88
0,          8,          9,        1,     4479, 222fd06ee6838a9d0d30d6581836b12c
0,          9,         10,        1,     4399, a52bc91d70bcceb7b4f5f495ac2a3fbc
0,         10,         11,        1,     4623, 041cf113d5f314f9e872e1150e905bef
0,         11,         12,        1,     4587, a6401231bac86b1835906b8dee1a43f0
0,         12,         13,        1,     4601, 69d2d64354437b7bb4ba3c5f397b4252
0,         13,         14,        1,     4893, 8899ddd5eb3ba0cc1dc4d32657417e1a
0,         14,         15,        1,     4806, 0a3cfcc1e3d2731fa7e9ad6ba7d0e154
0,         15,         16,        1,     4846, ecf0c011ca1a9ed1ff2cfcd93df391ed
0,         16,         17,        1,     4933, 33df4efb742f4c1700cc8286cfe9cf31
0,         17,         18,        1,     5163, ca62615e00334c9c128c66ba75d972b8
0,         18,         19,        1,     5270, a3d47f078e1645e252631b80c6d6001c
0,         19,         20,        1,     5274, e5ae4203b487eb80899e48aa757be715
0,         20,         21,        1,     5444, 22127dcd9b3f1b36f8ab140ee285c452
0,         21,         22,        1,     5389, 2ca436790d79219ad4707629fe441264
0,         22,         23,        1,     5673, ce1e2b7e50ba72c06d80eab3ac362ca2
0,         23,         24,        1,     5834, 56d07f7a466fa17c9c219edf3d769fa4
0,         24,         25,        1,     5842, e3e36b18f99795790494ea2dcb5007df
0,         25,         26,        1,     5775, 634a6fd9fdc6cbeb6691a4a25dfad59f
0,         26,         27,        1,     5915, a85ed47a10aa2aff435434754d550887
0,         27,         28,        1,     5983, e4cf2d7cce7c0804461724f59f2c07ce
0,         28,         29,        1,     6618, 1bf833820fc2506027917e4b2b82c852
0,         29,         30,        1,     6699, 8c8af02eb6e1784ffa6681871c864d16
0,         30,         31,        1,     6501, 3699ba983a077ba95356933bd7255980
0,         31,         32,        1,     6394, c76cc3fc7e2e822dcc830c2e8e0b29bc
0,         32,         33,        1,     6517, 2fe495c80a2aa89caa84954e24e0f220
0,         33,         34,        1,     6569, bc6f2e8c93758b6ea27214998198f742
0,         34,         35,        1,     6832, c26b374e93c666cc97127cb695a55ee7
0,         35,         36,        1,     7322, e9b2a082dd4e72268c7e3ee3f1aca16a
0,         36,         37,        1,     7067, ae438c46d36ea1818d45c81ca472d81d
0,         37,         38,        1,     7115, aa614071471076df507fae5f57cabbe8
0,         38,         39,        1,     6730, a269b615ec375fe25962354063522146
0,         39,         40,        1,     7217, b4c52496fd899c41bab89e1838950d52
0,         40,         41,        1,     7031, a7c3957d7f217fe111da0f164d2756a7
0,         41,         42,        1,     7378, 19ecd63f74266e0f496472dd20c31b4c
0,         42,         43,        1,     7176, 89707ed0a35e5558f3ac27951d2229ad
0,         43,         44,        1,     7316, 4f9c16730a0907011ee5684f386ab16a
0,         44,         45,        1,     7343, c0b317fbaeaa3dd8794cf3b86a3858f5
0,         45,         46,        1,     7185, 699d040d8b8be059acb015742d2b8a00
0,         46,         47,        1,     7219, 9af37e99adc92bbd281fbe03889ed974
0,         47,         48,        1,     7200, 96ae10f61e1d9c6b015c7ab045bd5576
0,         48,         49,        1,     7438, c882c09ba6bd4c0f4ad8b071cf427bae
